{
 "cells": [
  {
   "cell_type": "markdown",
   "id": "7d30043b",
   "metadata": {},
   "source": [
    "## VMAF"
   ]
  },
  {
   "cell_type": "code",
   "execution_count": 1,
   "id": "34644f41",
   "metadata": {
    "scrolled": true
   },
   "outputs": [
    {
     "name": "stderr",
     "output_type": "stream",
     "text": [
      "ffmpeg version N-106635-g83e1a1de88 Copyright (c) 2000-2022 the FFmpeg developers\n",
      "  built with gcc 9 (Ubuntu 9.4.0-1ubuntu1~20.04.1)\n",
      "  configuration: --prefix=/home/ubuntu/ffmpeg_build --pkg-config-flags=--static --extra-cflags=-I/home/ubuntu/ffmpeg_build/include --extra-ldflags=-L/home/ubuntu/ffmpeg_build/lib --extra-libs='-lpthread -lm' --ld=g++ --bindir=/home/ubuntu/bin --enable-gpl --enable-gnutls --enable-libaom --enable-libass --enable-libfdk-aac --enable-libfreetype --enable-libmp3lame --enable-libopus --enable-libsvtav1 --enable-libdav1d --enable-libvorbis --enable-libvpx --enable-libx264 --enable-libx265 --enable-libvmaf --enable-version3 --enable-nonfree\n",
      "  libavutil      57. 24.101 / 57. 24.101\n",
      "  libavcodec     59. 26.100 / 59. 26.100\n",
      "  libavformat    59. 22.100 / 59. 22.100\n",
      "  libavdevice    59.  6.100 / 59.  6.100\n",
      "  libavfilter     8. 33.100 /  8. 33.100\n",
      "  libswscale      6.  6.100 /  6.  6.100\n",
      "  libswresample   4.  6.100 /  4.  6.100\n",
      "  libpostproc    56.  5.100 / 56.  5.100\n",
      "[rawvideo @ 0x557af24f95c0] Estimating duration from bitrate, this may be inaccurate\n",
      "Input #0, rawvideo, from 'test_vids/downsampled/smithy_3840.yuv':\n",
      "  Duration: 00:00:30.00, start: 0.000000, bitrate: 4976640 kb/s\n",
      "  Stream #0:0: Video: rawvideo (I420 / 0x30323449), yuv420p, 3840x2160, 4976640 kb/s, 50 tbr, 50 tbn\n",
      "Input #1, mov,mp4,m4a,3gp,3g2,mj2, from 'test_vids/encoded/smithyAVC_1920_cf50.mp4':\n",
      "  Metadata:\n",
      "    major_brand     : isom\n",
      "    minor_version   : 512\n",
      "    compatible_brands: isomiso2avc1mp41\n",
      "    encoder         : Lavf58.29.100\n",
      "  Duration: 00:00:30.00, start: 0.000000, bitrate: 52 kb/s\n",
      "  Stream #1:0[0x1](und): Video: h264 (High) (avc1 / 0x31637661), yuv420p(progressive), 1920x1080, 48 kb/s, 50 fps, 50 tbr, 12800 tbn (default)\n",
      "    Metadata:\n",
      "      handler_name    : VideoHandler\n",
      "      vendor_id       : [0][0][0][0]\n",
      "Stream mapping:\n",
      "  Stream #0:0 (rawvideo) -> setpts:default\n",
      "  Stream #1:0 (h264) -> scale:default\n",
      "  libvmaf:default -> Stream #0:0 (wrapped_avframe)\n",
      "Press [q] to stop, [?] for help\n",
      "Output #0, null, to 'pipe:':\n",
      "  Metadata:\n",
      "    encoder         : Lavf59.22.100\n",
      "  Stream #0:0: Video: wrapped_avframe, yuv420p(tv, progressive), 3840x2160, q=2-31, 200 kb/s, 50 fps, 50 tbn\n",
      "    Metadata:\n",
      "      encoder         : Lavc59.26.100 wrapped_avframe\n",
      "frame= 1500 fps=0.5 q=-0.0 Lsize=N/A time=00:00:30.00 bitrate=N/A speed=0.00953x    \n",
      "video:691kB audio:0kB subtitle:0kB other streams:0kB global headers:0kB muxing overhead: unknown\n",
      "[Parsed_libvmaf_3 @ 0x557af33db500] VMAF score: 0.679815\n",
      "ffmpeg version N-106635-g83e1a1de88 Copyright (c) 2000-2022 the FFmpeg developers\n",
      "  built with gcc 9 (Ubuntu 9.4.0-1ubuntu1~20.04.1)\n",
      "  configuration: --prefix=/home/ubuntu/ffmpeg_build --pkg-config-flags=--static --extra-cflags=-I/home/ubuntu/ffmpeg_build/include --extra-ldflags=-L/home/ubuntu/ffmpeg_build/lib --extra-libs='-lpthread -lm' --ld=g++ --bindir=/home/ubuntu/bin --enable-gpl --enable-gnutls --enable-libaom --enable-libass --enable-libfdk-aac --enable-libfreetype --enable-libmp3lame --enable-libopus --enable-libsvtav1 --enable-libdav1d --enable-libvorbis --enable-libvpx --enable-libx264 --enable-libx265 --enable-libvmaf --enable-version3 --enable-nonfree\n",
      "  libavutil      57. 24.101 / 57. 24.101\n",
      "  libavcodec     59. 26.100 / 59. 26.100\n",
      "  libavformat    59. 22.100 / 59. 22.100\n",
      "  libavdevice    59.  6.100 / 59.  6.100\n",
      "  libavfilter     8. 33.100 /  8. 33.100\n",
      "  libswscale      6.  6.100 /  6.  6.100\n",
      "  libswresample   4.  6.100 /  4.  6.100\n",
      "  libpostproc    56.  5.100 / 56.  5.100\n",
      "[rawvideo @ 0x56403630c5c0] Estimating duration from bitrate, this may be inaccurate\n",
      "Input #0, rawvideo, from 'test_vids/downsampled/smithy_3840.yuv':\n",
      "  Duration: 00:00:30.00, start: 0.000000, bitrate: 4976640 kb/s\n",
      "  Stream #0:0: Video: rawvideo (I420 / 0x30323449), yuv420p, 3840x2160, 4976640 kb/s, 50 tbr, 50 tbn\n",
      "Input #1, mov,mp4,m4a,3gp,3g2,mj2, from 'test_vids/encoded/smithyAVC_2560_cf50.mp4':\n",
      "  Metadata:\n",
      "    major_brand     : isom\n",
      "    minor_version   : 512\n",
      "    compatible_brands: isomiso2avc1mp41\n",
      "    encoder         : Lavf58.29.100\n",
      "  Duration: 00:00:30.00, start: 0.000000, bitrate: 105 kb/s\n",
      "  Stream #1:0[0x1](und): Video: h264 (High) (avc1 / 0x31637661), yuv420p(progressive), 2560x1440, 100 kb/s, 50 fps, 50 tbr, 12800 tbn (default)\n",
      "    Metadata:\n",
      "      handler_name    : VideoHandler\n",
      "      vendor_id       : [0][0][0][0]\n",
      "Stream mapping:\n",
      "  Stream #0:0 (rawvideo) -> setpts:default\n",
      "  Stream #1:0 (h264) -> scale:default\n",
      "  libvmaf:default -> Stream #0:0 (wrapped_avframe)\n",
      "Press [q] to stop, [?] for help\n",
      "Output #0, null, to 'pipe:':\n",
      "  Metadata:\n",
      "    encoder         : Lavf59.22.100\n",
      "  Stream #0:0: Video: wrapped_avframe, yuv420p(tv, progressive), 3840x2160, q=2-31, 200 kb/s, 50 fps, 50 tbn\n",
      "    Metadata:\n",
      "      encoder         : Lavc59.26.100 wrapped_avframe\n",
      "frame= 1500 fps=0.5 q=-0.0 Lsize=N/A time=00:00:30.00 bitrate=N/A speed=0.00931x    \n",
      "video:691kB audio:0kB subtitle:0kB other streams:0kB global headers:0kB muxing overhead: unknown\n",
      "[Parsed_libvmaf_3 @ 0x5640376bff80] VMAF score: 2.225498\n",
      "ffmpeg version N-106635-g83e1a1de88 Copyright (c) 2000-2022 the FFmpeg developers\n",
      "  built with gcc 9 (Ubuntu 9.4.0-1ubuntu1~20.04.1)\n",
      "  configuration: --prefix=/home/ubuntu/ffmpeg_build --pkg-config-flags=--static --extra-cflags=-I/home/ubuntu/ffmpeg_build/include --extra-ldflags=-L/home/ubuntu/ffmpeg_build/lib --extra-libs='-lpthread -lm' --ld=g++ --bindir=/home/ubuntu/bin --enable-gpl --enable-gnutls --enable-libaom --enable-libass --enable-libfdk-aac --enable-libfreetype --enable-libmp3lame --enable-libopus --enable-libsvtav1 --enable-libdav1d --enable-libvorbis --enable-libvpx --enable-libx264 --enable-libx265 --enable-libvmaf --enable-version3 --enable-nonfree\n",
      "  libavutil      57. 24.101 / 57. 24.101\n",
      "  libavcodec     59. 26.100 / 59. 26.100\n",
      "  libavformat    59. 22.100 / 59. 22.100\n",
      "  libavdevice    59.  6.100 / 59.  6.100\n",
      "  libavfilter     8. 33.100 /  8. 33.100\n",
      "  libswscale      6.  6.100 /  6.  6.100\n",
      "  libswresample   4.  6.100 /  4.  6.100\n",
      "  libpostproc    56.  5.100 / 56.  5.100\n",
      "[rawvideo @ 0x555c90d0d5c0] Estimating duration from bitrate, this may be inaccurate\n",
      "Input #0, rawvideo, from 'test_vids/downsampled/smithy_3840.yuv':\n",
      "  Duration: 00:00:30.00, start: 0.000000, bitrate: 4976640 kb/s\n",
      "  Stream #0:0: Video: rawvideo (I420 / 0x30323449), yuv420p, 3840x2160, 4976640 kb/s, 50 tbr, 50 tbn\n",
      "Input #1, mov,mp4,m4a,3gp,3g2,mj2, from 'test_vids/encoded/smithyAVC_1280_cf50.mp4':\n",
      "  Metadata:\n",
      "    major_brand     : isom\n",
      "    minor_version   : 512\n",
      "    compatible_brands: isomiso2avc1mp41\n",
      "    encoder         : Lavf58.29.100\n",
      "  Duration: 00:00:30.00, start: 0.000000, bitrate: 26 kb/s\n",
      "  Stream #1:0[0x1](und): Video: h264 (High) (avc1 / 0x31637661), yuv420p(progressive), 1280x720, 21 kb/s, 50 fps, 50 tbr, 12800 tbn (default)\n",
      "    Metadata:\n",
      "      handler_name    : VideoHandler\n",
      "      vendor_id       : [0][0][0][0]\n",
      "Stream mapping:\n",
      "  Stream #0:0 (rawvideo) -> setpts:default\n",
      "  Stream #1:0 (h264) -> scale:default\n",
      "  libvmaf:default -> Stream #0:0 (wrapped_avframe)\n",
      "Press [q] to stop, [?] for help\n",
      "Output #0, null, to 'pipe:':\n",
      "  Metadata:\n",
      "    encoder         : Lavf59.22.100\n",
      "  Stream #0:0: Video: wrapped_avframe, yuv420p(tv, progressive), 3840x2160, q=2-31, 200 kb/s, 50 fps, 50 tbn\n",
      "    Metadata:\n",
      "      encoder         : Lavc59.26.100 wrapped_avframe\n",
      "frame= 1500 fps=0.5 q=-0.0 Lsize=N/A time=00:00:30.00 bitrate=N/A speed=0.0096x    \n",
      "video:691kB audio:0kB subtitle:0kB other streams:0kB global headers:0kB muxing overhead: unknown\n",
      "[Parsed_libvmaf_3 @ 0x555c91864540] VMAF score: 0.105711\n",
      "ffmpeg version N-106635-g83e1a1de88 Copyright (c) 2000-2022 the FFmpeg developers\n",
      "  built with gcc 9 (Ubuntu 9.4.0-1ubuntu1~20.04.1)\n",
      "  configuration: --prefix=/home/ubuntu/ffmpeg_build --pkg-config-flags=--static --extra-cflags=-I/home/ubuntu/ffmpeg_build/include --extra-ldflags=-L/home/ubuntu/ffmpeg_build/lib --extra-libs='-lpthread -lm' --ld=g++ --bindir=/home/ubuntu/bin --enable-gpl --enable-gnutls --enable-libaom --enable-libass --enable-libfdk-aac --enable-libfreetype --enable-libmp3lame --enable-libopus --enable-libsvtav1 --enable-libdav1d --enable-libvorbis --enable-libvpx --enable-libx264 --enable-libx265 --enable-libvmaf --enable-version3 --enable-nonfree\n",
      "  libavutil      57. 24.101 / 57. 24.101\n",
      "  libavcodec     59. 26.100 / 59. 26.100\n",
      "  libavformat    59. 22.100 / 59. 22.100\n",
      "  libavdevice    59.  6.100 / 59.  6.100\n",
      "  libavfilter     8. 33.100 /  8. 33.100\n",
      "  libswscale      6.  6.100 /  6.  6.100\n",
      "  libswresample   4.  6.100 /  4.  6.100\n",
      "  libpostproc    56.  5.100 / 56.  5.100\n",
      "[rawvideo @ 0x5584b4a945c0] Estimating duration from bitrate, this may be inaccurate\n",
      "Input #0, rawvideo, from 'test_vids/downsampled/smithy_3840.yuv':\n",
      "  Duration: 00:00:30.00, start: 0.000000, bitrate: 4976640 kb/s\n",
      "  Stream #0:0: Video: rawvideo (I420 / 0x30323449), yuv420p, 3840x2160, 4976640 kb/s, 50 tbr, 50 tbn\n",
      "Input #1, mov,mp4,m4a,3gp,3g2,mj2, from 'test_vids/encoded/smithyAVC_1920_cf34.mp4':\n",
      "  Metadata:\n",
      "    major_brand     : isom\n",
      "    minor_version   : 512\n",
      "    compatible_brands: isomiso2avc1mp41\n",
      "    encoder         : Lavf58.29.100\n",
      "  Duration: 00:00:30.00, start: 0.000000, bitrate: 1244 kb/s\n",
      "  Stream #1:0[0x1](und): Video: h264 (High) (avc1 / 0x31637661), yuv420p(progressive), 1920x1080, 1240 kb/s, 50 fps, 50 tbr, 12800 tbn (default)\n",
      "    Metadata:\n",
      "      handler_name    : VideoHandler\n",
      "      vendor_id       : [0][0][0][0]\n",
      "Stream mapping:\n",
      "  Stream #0:0 (rawvideo) -> setpts:default\n",
      "  Stream #1:0 (h264) -> scale:default\n",
      "  libvmaf:default -> Stream #0:0 (wrapped_avframe)\n",
      "Press [q] to stop, [?] for help\n"
     ]
    },
    {
     "name": "stderr",
     "output_type": "stream",
     "text": [
      "Output #0, null, to 'pipe:':\n",
      "  Metadata:\n",
      "    encoder         : Lavf59.22.100\n",
      "  Stream #0:0: Video: wrapped_avframe, yuv420p(tv, progressive), 3840x2160, q=2-31, 200 kb/s, 50 fps, 50 tbn\n",
      "    Metadata:\n",
      "      encoder         : Lavc59.26.100 wrapped_avframe\n",
      "frame= 1500 fps=0.5 q=-0.0 Lsize=N/A time=00:00:30.00 bitrate=N/A speed=0.00946x    \n",
      "video:691kB audio:0kB subtitle:0kB other streams:0kB global headers:0kB muxing overhead: unknown\n",
      "[Parsed_libvmaf_3 @ 0x5584b5989940] VMAF score: 38.697556\n",
      "ffmpeg version N-106635-g83e1a1de88 Copyright (c) 2000-2022 the FFmpeg developers\n",
      "  built with gcc 9 (Ubuntu 9.4.0-1ubuntu1~20.04.1)\n",
      "  configuration: --prefix=/home/ubuntu/ffmpeg_build --pkg-config-flags=--static --extra-cflags=-I/home/ubuntu/ffmpeg_build/include --extra-ldflags=-L/home/ubuntu/ffmpeg_build/lib --extra-libs='-lpthread -lm' --ld=g++ --bindir=/home/ubuntu/bin --enable-gpl --enable-gnutls --enable-libaom --enable-libass --enable-libfdk-aac --enable-libfreetype --enable-libmp3lame --enable-libopus --enable-libsvtav1 --enable-libdav1d --enable-libvorbis --enable-libvpx --enable-libx264 --enable-libx265 --enable-libvmaf --enable-version3 --enable-nonfree\n",
      "  libavutil      57. 24.101 / 57. 24.101\n",
      "  libavcodec     59. 26.100 / 59. 26.100\n",
      "  libavformat    59. 22.100 / 59. 22.100\n",
      "  libavdevice    59.  6.100 / 59.  6.100\n",
      "  libavfilter     8. 33.100 /  8. 33.100\n",
      "  libswscale      6.  6.100 /  6.  6.100\n",
      "  libswresample   4.  6.100 /  4.  6.100\n",
      "  libpostproc    56.  5.100 / 56.  5.100\n",
      "[rawvideo @ 0x561bad6f55c0] Estimating duration from bitrate, this may be inaccurate\n",
      "Input #0, rawvideo, from 'test_vids/downsampled/smithy_3840.yuv':\n",
      "  Duration: 00:00:30.00, start: 0.000000, bitrate: 4976640 kb/s\n",
      "  Stream #0:0: Video: rawvideo (I420 / 0x30323449), yuv420p, 3840x2160, 4976640 kb/s, 50 tbr, 50 tbn\n",
      "Input #1, mov,mp4,m4a,3gp,3g2,mj2, from 'test_vids/encoded/smithyAVC_2560_cf1.mp4':\n",
      "  Metadata:\n",
      "    major_brand     : isom\n",
      "    minor_version   : 512\n",
      "    compatible_brands: isomiso2avc1mp41\n",
      "    encoder         : Lavf58.29.100\n",
      "  Duration: 00:00:30.00, start: 0.000000, bitrate: 249410 kb/s\n",
      "  Stream #1:0[0x1](und): Video: h264 (High) (avc1 / 0x31637661), yuv420p(progressive), 2560x1440, 249402 kb/s, 50 fps, 50 tbr, 12800 tbn (default)\n",
      "    Metadata:\n",
      "      handler_name    : VideoHandler\n",
      "      vendor_id       : [0][0][0][0]\n",
      "Stream mapping:\n",
      "  Stream #0:0 (rawvideo) -> setpts:default\n",
      "  Stream #1:0 (h264) -> scale:default\n",
      "  libvmaf:default -> Stream #0:0 (wrapped_avframe)\n",
      "Press [q] to stop, [?] for help\n",
      "Output #0, null, to 'pipe:':\n",
      "  Metadata:\n",
      "    encoder         : Lavf59.22.100\n",
      "  Stream #0:0: Video: wrapped_avframe, yuv420p(tv, progressive), 3840x2160, q=2-31, 200 kb/s, 50 fps, 50 tbn\n",
      "    Metadata:\n",
      "      encoder         : Lavc59.26.100 wrapped_avframe\n",
      "frame= 1500 fps=0.5 q=-0.0 Lsize=N/A time=00:00:30.00 bitrate=N/A speed=0.00951x    \n",
      "video:691kB audio:0kB subtitle:0kB other streams:0kB global headers:0kB muxing overhead: unknown\n",
      "[Parsed_libvmaf_3 @ 0x561baeaab100] VMAF score: 93.050370\n",
      "ffmpeg version N-106635-g83e1a1de88 Copyright (c) 2000-2022 the FFmpeg developers\n",
      "  built with gcc 9 (Ubuntu 9.4.0-1ubuntu1~20.04.1)\n",
      "  configuration: --prefix=/home/ubuntu/ffmpeg_build --pkg-config-flags=--static --extra-cflags=-I/home/ubuntu/ffmpeg_build/include --extra-ldflags=-L/home/ubuntu/ffmpeg_build/lib --extra-libs='-lpthread -lm' --ld=g++ --bindir=/home/ubuntu/bin --enable-gpl --enable-gnutls --enable-libaom --enable-libass --enable-libfdk-aac --enable-libfreetype --enable-libmp3lame --enable-libopus --enable-libsvtav1 --enable-libdav1d --enable-libvorbis --enable-libvpx --enable-libx264 --enable-libx265 --enable-libvmaf --enable-version3 --enable-nonfree\n",
      "  libavutil      57. 24.101 / 57. 24.101\n",
      "  libavcodec     59. 26.100 / 59. 26.100\n",
      "  libavformat    59. 22.100 / 59. 22.100\n",
      "  libavdevice    59.  6.100 / 59.  6.100\n",
      "  libavfilter     8. 33.100 /  8. 33.100\n",
      "  libswscale      6.  6.100 /  6.  6.100\n",
      "  libswresample   4.  6.100 /  4.  6.100\n",
      "  libpostproc    56.  5.100 / 56.  5.100\n",
      "[rawvideo @ 0x56125f69a5c0] Estimating duration from bitrate, this may be inaccurate\n",
      "Input #0, rawvideo, from 'test_vids/downsampled/smithy_3840.yuv':\n",
      "  Duration: 00:00:30.00, start: 0.000000, bitrate: 4976640 kb/s\n",
      "  Stream #0:0: Video: rawvideo (I420 / 0x30323449), yuv420p, 3840x2160, 4976640 kb/s, 50 tbr, 50 tbn\n",
      "Input #1, mov,mp4,m4a,3gp,3g2,mj2, from 'test_vids/encoded/smithyAVC_1280_cf1.mp4':\n",
      "  Metadata:\n",
      "    major_brand     : isom\n",
      "    minor_version   : 512\n",
      "    compatible_brands: isomiso2avc1mp41\n",
      "    encoder         : Lavf58.29.100\n",
      "  Duration: 00:00:30.00, start: 0.000000, bitrate: 62226 kb/s\n",
      "  Stream #1:0[0x1](und): Video: h264 (High) (avc1 / 0x31637661), yuv420p(progressive), 1280x720, 62221 kb/s, 50 fps, 50 tbr, 12800 tbn (default)\n",
      "    Metadata:\n",
      "      handler_name    : VideoHandler\n",
      "      vendor_id       : [0][0][0][0]\n",
      "Stream mapping:\n",
      "  Stream #0:0 (rawvideo) -> setpts:default\n",
      "  Stream #1:0 (h264) -> scale:default\n",
      "  libvmaf:default -> Stream #0:0 (wrapped_avframe)\n",
      "Press [q] to stop, [?] for help\n",
      "Output #0, null, to 'pipe:':\n",
      "  Metadata:\n",
      "    encoder         : Lavf59.22.100\n",
      "  Stream #0:0: Video: wrapped_avframe, yuv420p(tv, progressive), 3840x2160, q=2-31, 200 kb/s, 50 fps, 50 tbn\n",
      "    Metadata:\n",
      "      encoder         : Lavc59.26.100 wrapped_avframe\n",
      "frame= 1500 fps=0.5 q=-0.0 Lsize=N/A time=00:00:30.00 bitrate=N/A speed=0.00938x    \n",
      "video:691kB audio:0kB subtitle:0kB other streams:0kB global headers:0kB muxing overhead: unknown\n",
      "[Parsed_libvmaf_3 @ 0x5612601f1600] VMAF score: 65.669228\n",
      "ffmpeg version N-106635-g83e1a1de88 Copyright (c) 2000-2022 the FFmpeg developers\n",
      "  built with gcc 9 (Ubuntu 9.4.0-1ubuntu1~20.04.1)\n",
      "  configuration: --prefix=/home/ubuntu/ffmpeg_build --pkg-config-flags=--static --extra-cflags=-I/home/ubuntu/ffmpeg_build/include --extra-ldflags=-L/home/ubuntu/ffmpeg_build/lib --extra-libs='-lpthread -lm' --ld=g++ --bindir=/home/ubuntu/bin --enable-gpl --enable-gnutls --enable-libaom --enable-libass --enable-libfdk-aac --enable-libfreetype --enable-libmp3lame --enable-libopus --enable-libsvtav1 --enable-libdav1d --enable-libvorbis --enable-libvpx --enable-libx264 --enable-libx265 --enable-libvmaf --enable-version3 --enable-nonfree\n",
      "  libavutil      57. 24.101 / 57. 24.101\n",
      "  libavcodec     59. 26.100 / 59. 26.100\n",
      "  libavformat    59. 22.100 / 59. 22.100\n",
      "  libavdevice    59.  6.100 / 59.  6.100\n",
      "  libavfilter     8. 33.100 /  8. 33.100\n",
      "  libswscale      6.  6.100 /  6.  6.100\n",
      "  libswresample   4.  6.100 /  4.  6.100\n",
      "  libpostproc    56.  5.100 / 56.  5.100\n",
      "[rawvideo @ 0x5581933035c0] Estimating duration from bitrate, this may be inaccurate\n",
      "Input #0, rawvideo, from 'test_vids/downsampled/smithy_3840.yuv':\n",
      "  Duration: 00:00:30.00, start: 0.000000, bitrate: 4976640 kb/s\n",
      "  Stream #0:0: Video: rawvideo (I420 / 0x30323449), yuv420p, 3840x2160, 4976640 kb/s, 50 tbr, 50 tbn\n",
      "Input #1, mov,mp4,m4a,3gp,3g2,mj2, from 'test_vids/encoded/smithyAVC_1024_cf23.mp4':\n",
      "  Metadata:\n",
      "    major_brand     : isom\n",
      "    minor_version   : 512\n",
      "    compatible_brands: isomiso2avc1mp41\n",
      "    encoder         : Lavf58.29.100\n",
      "  Duration: 00:00:30.00, start: 0.000000, bitrate: 2054 kb/s\n",
      "  Stream #1:0[0x1](und): Video: h264 (High) (avc1 / 0x31637661), yuv420p(progressive), 1024x576, 2049 kb/s, 50 fps, 50 tbr, 12800 tbn (default)\n",
      "    Metadata:\n",
      "      handler_name    : VideoHandler\n",
      "      vendor_id       : [0][0][0][0]\n",
      "Stream mapping:\n",
      "  Stream #0:0 (rawvideo) -> setpts:default\n",
      "  Stream #1:0 (h264) -> scale:default\n",
      "  libvmaf:default -> Stream #0:0 (wrapped_avframe)\n",
      "Press [q] to stop, [?] for help\n",
      "Output #0, null, to 'pipe:':\n",
      "  Metadata:\n",
      "    encoder         : Lavf59.22.100\n",
      "  Stream #0:0: Video: wrapped_avframe, yuv420p(tv, progressive), 3840x2160, q=2-31, 200 kb/s, 50 fps, 50 tbn\n",
      "    Metadata:\n",
      "      encoder         : Lavc59.26.100 wrapped_avframe\n",
      "frame= 1500 fps=0.5 q=-0.0 Lsize=N/A time=00:00:30.00 bitrate=N/A speed=0.00918x    \n",
      "video:691kB audio:0kB subtitle:0kB other streams:0kB global headers:0kB muxing overhead: unknown\n",
      "[Parsed_libvmaf_3 @ 0x558193352a80] VMAF score: 37.560793\n",
      "ffmpeg version N-106635-g83e1a1de88 Copyright (c) 2000-2022 the FFmpeg developers\n",
      "  built with gcc 9 (Ubuntu 9.4.0-1ubuntu1~20.04.1)\n",
      "  configuration: --prefix=/home/ubuntu/ffmpeg_build --pkg-config-flags=--static --extra-cflags=-I/home/ubuntu/ffmpeg_build/include --extra-ldflags=-L/home/ubuntu/ffmpeg_build/lib --extra-libs='-lpthread -lm' --ld=g++ --bindir=/home/ubuntu/bin --enable-gpl --enable-gnutls --enable-libaom --enable-libass --enable-libfdk-aac --enable-libfreetype --enable-libmp3lame --enable-libopus --enable-libsvtav1 --enable-libdav1d --enable-libvorbis --enable-libvpx --enable-libx264 --enable-libx265 --enable-libvmaf --enable-version3 --enable-nonfree\n",
      "  libavutil      57. 24.101 / 57. 24.101\n",
      "  libavcodec     59. 26.100 / 59. 26.100\n",
      "  libavformat    59. 22.100 / 59. 22.100\n",
      "  libavdevice    59.  6.100 / 59.  6.100\n",
      "  libavfilter     8. 33.100 /  8. 33.100\n",
      "  libswscale      6.  6.100 /  6.  6.100\n",
      "  libswresample   4.  6.100 /  4.  6.100\n",
      "  libpostproc    56.  5.100 / 56.  5.100\n",
      "[rawvideo @ 0x555a40d685c0] Estimating duration from bitrate, this may be inaccurate\n",
      "Input #0, rawvideo, from 'test_vids/downsampled/smithy_3840.yuv':\n",
      "  Duration: 00:00:30.00, start: 0.000000, bitrate: 4976640 kb/s\n",
      "  Stream #0:0: Video: rawvideo (I420 / 0x30323449), yuv420p, 3840x2160, 4976640 kb/s, 50 tbr, 50 tbn\n"
     ]
    },
    {
     "name": "stderr",
     "output_type": "stream",
     "text": [
      "Input #1, mov,mp4,m4a,3gp,3g2,mj2, from 'test_vids/encoded/smithyAVC_2560_cf11.mp4':\n",
      "  Metadata:\n",
      "    major_brand     : isom\n",
      "    minor_version   : 512\n",
      "    compatible_brands: isomiso2avc1mp41\n",
      "    encoder         : Lavf58.29.100\n",
      "  Duration: 00:00:30.00, start: 0.000000, bitrate: 69130 kb/s\n",
      "  Stream #1:0[0x1](und): Video: h264 (High) (avc1 / 0x31637661), yuv420p(progressive), 2560x1440, 69125 kb/s, 50 fps, 50 tbr, 12800 tbn (default)\n",
      "    Metadata:\n",
      "      handler_name    : VideoHandler\n",
      "      vendor_id       : [0][0][0][0]\n",
      "Stream mapping:\n",
      "  Stream #0:0 (rawvideo) -> setpts:default\n",
      "  Stream #1:0 (h264) -> scale:default\n",
      "  libvmaf:default -> Stream #0:0 (wrapped_avframe)\n",
      "Press [q] to stop, [?] for help\n",
      "Output #0, null, to 'pipe:':\n",
      "  Metadata:\n",
      "    encoder         : Lavf59.22.100\n",
      "  Stream #0:0: Video: wrapped_avframe, yuv420p(tv, progressive), 3840x2160, q=2-31, 200 kb/s, 50 fps, 50 tbn\n",
      "    Metadata:\n",
      "      encoder         : Lavc59.26.100 wrapped_avframe\n",
      "frame= 1500 fps=0.5 q=-0.0 Lsize=N/A time=00:00:30.00 bitrate=N/A speed=0.00936x    \n",
      "video:691kB audio:0kB subtitle:0kB other streams:0kB global headers:0kB muxing overhead: unknown\n",
      "[Parsed_libvmaf_3 @ 0x555a4211e000] VMAF score: 91.454220\n",
      "ffmpeg version N-106635-g83e1a1de88 Copyright (c) 2000-2022 the FFmpeg developers\n",
      "  built with gcc 9 (Ubuntu 9.4.0-1ubuntu1~20.04.1)\n",
      "  configuration: --prefix=/home/ubuntu/ffmpeg_build --pkg-config-flags=--static --extra-cflags=-I/home/ubuntu/ffmpeg_build/include --extra-ldflags=-L/home/ubuntu/ffmpeg_build/lib --extra-libs='-lpthread -lm' --ld=g++ --bindir=/home/ubuntu/bin --enable-gpl --enable-gnutls --enable-libaom --enable-libass --enable-libfdk-aac --enable-libfreetype --enable-libmp3lame --enable-libopus --enable-libsvtav1 --enable-libdav1d --enable-libvorbis --enable-libvpx --enable-libx264 --enable-libx265 --enable-libvmaf --enable-version3 --enable-nonfree\n",
      "  libavutil      57. 24.101 / 57. 24.101\n",
      "  libavcodec     59. 26.100 / 59. 26.100\n",
      "  libavformat    59. 22.100 / 59. 22.100\n",
      "  libavdevice    59.  6.100 / 59.  6.100\n",
      "  libavfilter     8. 33.100 /  8. 33.100\n",
      "  libswscale      6.  6.100 /  6.  6.100\n",
      "  libswresample   4.  6.100 /  4.  6.100\n",
      "  libpostproc    56.  5.100 / 56.  5.100\n",
      "[rawvideo @ 0x55c9495a45c0] Estimating duration from bitrate, this may be inaccurate\n",
      "Input #0, rawvideo, from 'test_vids/downsampled/smithy_3840.yuv':\n",
      "  Duration: 00:00:30.00, start: 0.000000, bitrate: 4976640 kb/s\n",
      "  Stream #0:0: Video: rawvideo (I420 / 0x30323449), yuv420p, 3840x2160, 4976640 kb/s, 50 tbr, 50 tbn\n",
      "Input #1, mov,mp4,m4a,3gp,3g2,mj2, from 'test_vids/encoded/smithyAVC_1280_cf23.mp4':\n",
      "  Metadata:\n",
      "    major_brand     : isom\n",
      "    minor_version   : 512\n",
      "    compatible_brands: isomiso2avc1mp41\n",
      "    encoder         : Lavf58.29.100\n",
      "  Duration: 00:00:30.00, start: 0.000000, bitrate: 3682 kb/s\n",
      "  Stream #1:0[0x1](und): Video: h264 (High) (avc1 / 0x31637661), yuv420p(progressive), 1280x720, 3677 kb/s, 50 fps, 50 tbr, 12800 tbn (default)\n",
      "    Metadata:\n",
      "      handler_name    : VideoHandler\n",
      "      vendor_id       : [0][0][0][0]\n",
      "Stream mapping:\n",
      "  Stream #0:0 (rawvideo) -> setpts:default\n",
      "  Stream #1:0 (h264) -> scale:default\n",
      "  libvmaf:default -> Stream #0:0 (wrapped_avframe)\n",
      "Press [q] to stop, [?] for help\n",
      "Output #0, null, to 'pipe:':\n",
      "  Metadata:\n",
      "    encoder         : Lavf59.22.100\n",
      "  Stream #0:0: Video: wrapped_avframe, yuv420p(tv, progressive), 3840x2160, q=2-31, 200 kb/s, 50 fps, 50 tbn\n",
      "    Metadata:\n",
      "      encoder         : Lavc59.26.100 wrapped_avframe\n",
      "frame= 1500 fps=0.5 q=-0.0 Lsize=N/A time=00:00:30.00 bitrate=N/A speed=0.00961x    \n",
      "video:691kB audio:0kB subtitle:0kB other streams:0kB global headers:0kB muxing overhead: unknown\n",
      "[Parsed_libvmaf_3 @ 0x55c94a0fc140] VMAF score: 53.320220\n",
      "ffmpeg version N-106635-g83e1a1de88 Copyright (c) 2000-2022 the FFmpeg developers\n",
      "  built with gcc 9 (Ubuntu 9.4.0-1ubuntu1~20.04.1)\n",
      "  configuration: --prefix=/home/ubuntu/ffmpeg_build --pkg-config-flags=--static --extra-cflags=-I/home/ubuntu/ffmpeg_build/include --extra-ldflags=-L/home/ubuntu/ffmpeg_build/lib --extra-libs='-lpthread -lm' --ld=g++ --bindir=/home/ubuntu/bin --enable-gpl --enable-gnutls --enable-libaom --enable-libass --enable-libfdk-aac --enable-libfreetype --enable-libmp3lame --enable-libopus --enable-libsvtav1 --enable-libdav1d --enable-libvorbis --enable-libvpx --enable-libx264 --enable-libx265 --enable-libvmaf --enable-version3 --enable-nonfree\n",
      "  libavutil      57. 24.101 / 57. 24.101\n",
      "  libavcodec     59. 26.100 / 59. 26.100\n",
      "  libavformat    59. 22.100 / 59. 22.100\n",
      "  libavdevice    59.  6.100 / 59.  6.100\n",
      "  libavfilter     8. 33.100 /  8. 33.100\n",
      "  libswscale      6.  6.100 /  6.  6.100\n",
      "  libswresample   4.  6.100 /  4.  6.100\n",
      "  libpostproc    56.  5.100 / 56.  5.100\n",
      "[rawvideo @ 0x561fc0cf95c0] Estimating duration from bitrate, this may be inaccurate\n",
      "Input #0, rawvideo, from 'test_vids/downsampled/smithy_3840.yuv':\n",
      "  Duration: 00:00:30.00, start: 0.000000, bitrate: 4976640 kb/s\n",
      "  Stream #0:0: Video: rawvideo (I420 / 0x30323449), yuv420p, 3840x2160, 4976640 kb/s, 50 tbr, 50 tbn\n",
      "Input #1, mov,mp4,m4a,3gp,3g2,mj2, from 'test_vids/encoded/smithyAVC_1280_cf11.mp4':\n",
      "  Metadata:\n",
      "    major_brand     : isom\n",
      "    minor_version   : 512\n",
      "    compatible_brands: isomiso2avc1mp41\n",
      "    encoder         : Lavf58.29.100\n",
      "  Duration: 00:00:30.00, start: 0.000000, bitrate: 17319 kb/s\n",
      "  Stream #1:0[0x1](und): Video: h264 (High) (avc1 / 0x31637661), yuv420p(progressive), 1280x720, 17314 kb/s, 50 fps, 50 tbr, 12800 tbn (default)\n",
      "    Metadata:\n",
      "      handler_name    : VideoHandler\n",
      "      vendor_id       : [0][0][0][0]\n",
      "Stream mapping:\n",
      "  Stream #0:0 (rawvideo) -> setpts:default\n",
      "  Stream #1:0 (h264) -> scale:default\n",
      "  libvmaf:default -> Stream #0:0 (wrapped_avframe)\n",
      "Press [q] to stop, [?] for help\n",
      "Output #0, null, to 'pipe:':\n",
      "  Metadata:\n",
      "    encoder         : Lavf59.22.100\n",
      "  Stream #0:0: Video: wrapped_avframe, yuv420p(tv, progressive), 3840x2160, q=2-31, 200 kb/s, 50 fps, 50 tbn\n",
      "    Metadata:\n",
      "      encoder         : Lavc59.26.100 wrapped_avframe\n",
      "frame= 1500 fps=0.5 q=-0.0 Lsize=N/A time=00:00:30.00 bitrate=N/A speed=0.00962x    \n",
      "video:691kB audio:0kB subtitle:0kB other streams:0kB global headers:0kB muxing overhead: unknown\n",
      "[Parsed_libvmaf_3 @ 0x561fc1850b80] VMAF score: 64.091444\n",
      "ffmpeg version N-106635-g83e1a1de88 Copyright (c) 2000-2022 the FFmpeg developers\n",
      "  built with gcc 9 (Ubuntu 9.4.0-1ubuntu1~20.04.1)\n",
      "  configuration: --prefix=/home/ubuntu/ffmpeg_build --pkg-config-flags=--static --extra-cflags=-I/home/ubuntu/ffmpeg_build/include --extra-ldflags=-L/home/ubuntu/ffmpeg_build/lib --extra-libs='-lpthread -lm' --ld=g++ --bindir=/home/ubuntu/bin --enable-gpl --enable-gnutls --enable-libaom --enable-libass --enable-libfdk-aac --enable-libfreetype --enable-libmp3lame --enable-libopus --enable-libsvtav1 --enable-libdav1d --enable-libvorbis --enable-libvpx --enable-libx264 --enable-libx265 --enable-libvmaf --enable-version3 --enable-nonfree\n",
      "  libavutil      57. 24.101 / 57. 24.101\n",
      "  libavcodec     59. 26.100 / 59. 26.100\n",
      "  libavformat    59. 22.100 / 59. 22.100\n",
      "  libavdevice    59.  6.100 / 59.  6.100\n",
      "  libavfilter     8. 33.100 /  8. 33.100\n",
      "  libswscale      6.  6.100 /  6.  6.100\n",
      "  libswresample   4.  6.100 /  4.  6.100\n",
      "  libpostproc    56.  5.100 / 56.  5.100\n",
      "[rawvideo @ 0x5649632be5c0] Estimating duration from bitrate, this may be inaccurate\n",
      "Input #0, rawvideo, from 'test_vids/downsampled/smithy_3840.yuv':\n",
      "  Duration: 00:00:30.00, start: 0.000000, bitrate: 4976640 kb/s\n",
      "  Stream #0:0: Video: rawvideo (I420 / 0x30323449), yuv420p, 3840x2160, 4976640 kb/s, 50 tbr, 50 tbn\n",
      "Input #1, mov,mp4,m4a,3gp,3g2,mj2, from 'test_vids/encoded/smithyAVC_2560_cf23.mp4':\n",
      "  Metadata:\n",
      "    major_brand     : isom\n",
      "    minor_version   : 512\n",
      "    compatible_brands: isomiso2avc1mp41\n",
      "    encoder         : Lavf58.29.100\n",
      "  Duration: 00:00:30.00, start: 0.000000, bitrate: 12979 kb/s\n",
      "  Stream #1:0[0x1](und): Video: h264 (High) (avc1 / 0x31637661), yuv420p(progressive), 2560x1440, 12974 kb/s, 50 fps, 50 tbr, 12800 tbn (default)\n",
      "    Metadata:\n",
      "      handler_name    : VideoHandler\n",
      "      vendor_id       : [0][0][0][0]\n",
      "Stream mapping:\n",
      "  Stream #0:0 (rawvideo) -> setpts:default\n",
      "  Stream #1:0 (h264) -> scale:default\n",
      "  libvmaf:default -> Stream #0:0 (wrapped_avframe)\n",
      "Press [q] to stop, [?] for help\n"
     ]
    },
    {
     "name": "stderr",
     "output_type": "stream",
     "text": [
      "Output #0, null, to 'pipe:':\n",
      "  Metadata:\n",
      "    encoder         : Lavf59.22.100\n",
      "  Stream #0:0: Video: wrapped_avframe, yuv420p(tv, progressive), 3840x2160, q=2-31, 200 kb/s, 50 fps, 50 tbn\n",
      "    Metadata:\n",
      "      encoder         : Lavc59.26.100 wrapped_avframe\n",
      "frame= 1500 fps=0.5 q=-0.0 Lsize=N/A time=00:00:30.00 bitrate=N/A speed=0.00962x    \n",
      "video:691kB audio:0kB subtitle:0kB other streams:0kB global headers:0kB muxing overhead: unknown\n",
      "[Parsed_libvmaf_3 @ 0x564964673b00] VMAF score: 82.912676\n",
      "ffmpeg version N-106635-g83e1a1de88 Copyright (c) 2000-2022 the FFmpeg developers\n",
      "  built with gcc 9 (Ubuntu 9.4.0-1ubuntu1~20.04.1)\n",
      "  configuration: --prefix=/home/ubuntu/ffmpeg_build --pkg-config-flags=--static --extra-cflags=-I/home/ubuntu/ffmpeg_build/include --extra-ldflags=-L/home/ubuntu/ffmpeg_build/lib --extra-libs='-lpthread -lm' --ld=g++ --bindir=/home/ubuntu/bin --enable-gpl --enable-gnutls --enable-libaom --enable-libass --enable-libfdk-aac --enable-libfreetype --enable-libmp3lame --enable-libopus --enable-libsvtav1 --enable-libdav1d --enable-libvorbis --enable-libvpx --enable-libx264 --enable-libx265 --enable-libvmaf --enable-version3 --enable-nonfree\n",
      "  libavutil      57. 24.101 / 57. 24.101\n",
      "  libavcodec     59. 26.100 / 59. 26.100\n",
      "  libavformat    59. 22.100 / 59. 22.100\n",
      "  libavdevice    59.  6.100 / 59.  6.100\n",
      "  libavfilter     8. 33.100 /  8. 33.100\n",
      "  libswscale      6.  6.100 /  6.  6.100\n",
      "  libswresample   4.  6.100 /  4.  6.100\n",
      "  libpostproc    56.  5.100 / 56.  5.100\n",
      "[rawvideo @ 0x555fab12b5c0] Estimating duration from bitrate, this may be inaccurate\n",
      "Input #0, rawvideo, from 'test_vids/downsampled/smithy_3840.yuv':\n",
      "  Duration: 00:00:30.00, start: 0.000000, bitrate: 4976640 kb/s\n",
      "  Stream #0:0: Video: rawvideo (I420 / 0x30323449), yuv420p, 3840x2160, 4976640 kb/s, 50 tbr, 50 tbn\n",
      "Input #1, mov,mp4,m4a,3gp,3g2,mj2, from 'test_vids/encoded/smithyAVC_3840_cf34.mp4':\n",
      "  Metadata:\n",
      "    major_brand     : isom\n",
      "    minor_version   : 512\n",
      "    compatible_brands: isomiso2avc1mp41\n",
      "    encoder         : Lavf58.29.100\n",
      "  Duration: 00:00:30.00, start: 0.000000, bitrate: 5075 kb/s\n",
      "  Stream #1:0[0x1](und): Video: h264 (High) (avc1 / 0x31637661), yuv420p(progressive), 3840x2160, 5070 kb/s, 50 fps, 50 tbr, 12800 tbn (default)\n",
      "    Metadata:\n",
      "      handler_name    : VideoHandler\n",
      "      vendor_id       : [0][0][0][0]\n",
      "Stream mapping:\n",
      "  Stream #0:0 (rawvideo) -> setpts:default\n",
      "  Stream #1:0 (h264) -> scale:default\n",
      "  libvmaf:default -> Stream #0:0 (wrapped_avframe)\n",
      "Press [q] to stop, [?] for help\n",
      "Output #0, null, to 'pipe:':\n",
      "  Metadata:\n",
      "    encoder         : Lavf59.22.100\n",
      "  Stream #0:0: Video: wrapped_avframe, yuv420p(progressive), 3840x2160, q=2-31, 200 kb/s, 50 fps, 50 tbn\n",
      "    Metadata:\n",
      "      encoder         : Lavc59.26.100 wrapped_avframe\n",
      "frame= 1500 fps=0.5 q=-0.0 Lsize=N/A time=00:00:30.00 bitrate=N/A speed=0.00958x    \n",
      "video:691kB audio:0kB subtitle:0kB other streams:0kB global headers:0kB muxing overhead: unknown\n",
      "[Parsed_libvmaf_3 @ 0x555fad2bdb00] VMAF score: 65.680658\n",
      "ffmpeg version N-106635-g83e1a1de88 Copyright (c) 2000-2022 the FFmpeg developers\n",
      "  built with gcc 9 (Ubuntu 9.4.0-1ubuntu1~20.04.1)\n",
      "  configuration: --prefix=/home/ubuntu/ffmpeg_build --pkg-config-flags=--static --extra-cflags=-I/home/ubuntu/ffmpeg_build/include --extra-ldflags=-L/home/ubuntu/ffmpeg_build/lib --extra-libs='-lpthread -lm' --ld=g++ --bindir=/home/ubuntu/bin --enable-gpl --enable-gnutls --enable-libaom --enable-libass --enable-libfdk-aac --enable-libfreetype --enable-libmp3lame --enable-libopus --enable-libsvtav1 --enable-libdav1d --enable-libvorbis --enable-libvpx --enable-libx264 --enable-libx265 --enable-libvmaf --enable-version3 --enable-nonfree\n",
      "  libavutil      57. 24.101 / 57. 24.101\n",
      "  libavcodec     59. 26.100 / 59. 26.100\n",
      "  libavformat    59. 22.100 / 59. 22.100\n",
      "  libavdevice    59.  6.100 / 59.  6.100\n",
      "  libavfilter     8. 33.100 /  8. 33.100\n",
      "  libswscale      6.  6.100 /  6.  6.100\n",
      "  libswresample   4.  6.100 /  4.  6.100\n",
      "  libpostproc    56.  5.100 / 56.  5.100\n",
      "[rawvideo @ 0x560bfdc885c0] Estimating duration from bitrate, this may be inaccurate\n",
      "Input #0, rawvideo, from 'test_vids/downsampled/smithy_3840.yuv':\n",
      "  Duration: 00:00:30.00, start: 0.000000, bitrate: 4976640 kb/s\n",
      "  Stream #0:0: Video: rawvideo (I420 / 0x30323449), yuv420p, 3840x2160, 4976640 kb/s, 50 tbr, 50 tbn\n",
      "Input #1, mov,mp4,m4a,3gp,3g2,mj2, from 'test_vids/encoded/smithyAVC_1024_cf1.mp4':\n",
      "  Metadata:\n",
      "    major_brand     : isom\n",
      "    minor_version   : 512\n",
      "    compatible_brands: isomiso2avc1mp41\n",
      "    encoder         : Lavf58.29.100\n",
      "  Duration: 00:00:30.00, start: 0.000000, bitrate: 35687 kb/s\n",
      "  Stream #1:0[0x1](und): Video: h264 (High) (avc1 / 0x31637661), yuv420p(progressive), 1024x576, 35681 kb/s, 50 fps, 50 tbr, 12800 tbn (default)\n",
      "    Metadata:\n",
      "      handler_name    : VideoHandler\n",
      "      vendor_id       : [0][0][0][0]\n",
      "Stream mapping:\n",
      "  Stream #0:0 (rawvideo) -> setpts:default\n",
      "  Stream #1:0 (h264) -> scale:default\n",
      "  libvmaf:default -> Stream #0:0 (wrapped_avframe)\n",
      "Press [q] to stop, [?] for help\n",
      "Output #0, null, to 'pipe:':\n",
      "  Metadata:\n",
      "    encoder         : Lavf59.22.100\n",
      "  Stream #0:0: Video: wrapped_avframe, yuv420p(tv, progressive), 3840x2160, q=2-31, 200 kb/s, 50 fps, 50 tbn\n",
      "    Metadata:\n",
      "      encoder         : Lavc59.26.100 wrapped_avframe\n",
      "frame= 1500 fps=0.5 q=-0.0 Lsize=N/A time=00:00:30.00 bitrate=N/A speed=0.0096x    \n",
      "video:691kB audio:0kB subtitle:0kB other streams:0kB global headers:0kB muxing overhead: unknown\n",
      "[Parsed_libvmaf_3 @ 0x560bfe6d9100] VMAF score: 48.774792\n",
      "ffmpeg version N-106635-g83e1a1de88 Copyright (c) 2000-2022 the FFmpeg developers\n",
      "  built with gcc 9 (Ubuntu 9.4.0-1ubuntu1~20.04.1)\n",
      "  configuration: --prefix=/home/ubuntu/ffmpeg_build --pkg-config-flags=--static --extra-cflags=-I/home/ubuntu/ffmpeg_build/include --extra-ldflags=-L/home/ubuntu/ffmpeg_build/lib --extra-libs='-lpthread -lm' --ld=g++ --bindir=/home/ubuntu/bin --enable-gpl --enable-gnutls --enable-libaom --enable-libass --enable-libfdk-aac --enable-libfreetype --enable-libmp3lame --enable-libopus --enable-libsvtav1 --enable-libdav1d --enable-libvorbis --enable-libvpx --enable-libx264 --enable-libx265 --enable-libvmaf --enable-version3 --enable-nonfree\n",
      "  libavutil      57. 24.101 / 57. 24.101\n",
      "  libavcodec     59. 26.100 / 59. 26.100\n",
      "  libavformat    59. 22.100 / 59. 22.100\n",
      "  libavdevice    59.  6.100 / 59.  6.100\n",
      "  libavfilter     8. 33.100 /  8. 33.100\n",
      "  libswscale      6.  6.100 /  6.  6.100\n",
      "  libswresample   4.  6.100 /  4.  6.100\n",
      "  libpostproc    56.  5.100 / 56.  5.100\n",
      "[rawvideo @ 0x556c72ab55c0] Estimating duration from bitrate, this may be inaccurate\n",
      "Input #0, rawvideo, from 'test_vids/downsampled/smithy_3840.yuv':\n",
      "  Duration: 00:00:30.00, start: 0.000000, bitrate: 4976640 kb/s\n",
      "  Stream #0:0: Video: rawvideo (I420 / 0x30323449), yuv420p, 3840x2160, 4976640 kb/s, 50 tbr, 50 tbn\n",
      "Input #1, mov,mp4,m4a,3gp,3g2,mj2, from 'test_vids/encoded/smithyAVC_3840_cf11.mp4':\n",
      "  Metadata:\n",
      "    major_brand     : isom\n",
      "    minor_version   : 512\n",
      "    compatible_brands: isomiso2avc1mp41\n",
      "    encoder         : Lavf58.29.100\n",
      "  Duration: 00:00:30.00, start: 0.000000, bitrate: 142122 kb/s\n",
      "  Stream #1:0[0x1](und): Video: h264 (High) (avc1 / 0x31637661), yuv420p(progressive), 3840x2160, 142114 kb/s, 50 fps, 50 tbr, 12800 tbn (default)\n",
      "    Metadata:\n",
      "      handler_name    : VideoHandler\n",
      "      vendor_id       : [0][0][0][0]\n",
      "Stream mapping:\n",
      "  Stream #0:0 (rawvideo) -> setpts:default\n",
      "  Stream #1:0 (h264) -> scale:default\n",
      "  libvmaf:default -> Stream #0:0 (wrapped_avframe)\n",
      "Press [q] to stop, [?] for help\n",
      "Output #0, null, to 'pipe:':\n",
      "  Metadata:\n",
      "    encoder         : Lavf59.22.100\n",
      "  Stream #0:0: Video: wrapped_avframe, yuv420p(progressive), 3840x2160, q=2-31, 200 kb/s, 50 fps, 50 tbn\n",
      "    Metadata:\n",
      "      encoder         : Lavc59.26.100 wrapped_avframe\n",
      "frame=  381 fps=0.5 q=-0.0 size=N/A time=00:00:07.62 bitrate=N/A speed=0.00953x    \r"
     ]
    },
    {
     "ename": "KeyboardInterrupt",
     "evalue": "",
     "output_type": "error",
     "traceback": [
      "\u001b[0;31m---------------------------------------------------------------------------\u001b[0m",
      "\u001b[0;31mKeyboardInterrupt\u001b[0m                         Traceback (most recent call last)",
      "Input \u001b[0;32mIn [1]\u001b[0m, in \u001b[0;36m<cell line: 10>\u001b[0;34m()\u001b[0m\n\u001b[1;32m     11\u001b[0m path_dist \u001b[38;5;241m=\u001b[39m os\u001b[38;5;241m.\u001b[39mpath\u001b[38;5;241m.\u001b[39mjoin(folder, file)\n\u001b[1;32m     12\u001b[0m c_vmaf \u001b[38;5;241m=\u001b[39m \u001b[38;5;124mf\u001b[39m\u001b[38;5;124m\"\u001b[39m\u001b[38;5;124mffmpeg -f rawvideo -r 50 -video_size 3840x2160 -i \u001b[39m\u001b[38;5;132;01m{\u001b[39;00mpath_ref\u001b[38;5;132;01m}\u001b[39;00m\u001b[38;5;124m \u001b[39m\u001b[38;5;130;01m\\\u001b[39;00m\n\u001b[1;32m     13\u001b[0m \u001b[38;5;124m        -i \u001b[39m\u001b[38;5;132;01m{\u001b[39;00mpath_dist\u001b[38;5;132;01m}\u001b[39;00m\u001b[38;5;124m \u001b[39m\u001b[38;5;130;01m\\\u001b[39;00m\n\u001b[1;32m     14\u001b[0m \u001b[38;5;124m        -lavfi \u001b[39m\u001b[38;5;130;01m\\\"\u001b[39;00m\u001b[38;5;124m[0:v]setpts=PTS-STARTPTS[ref];\u001b[39m\u001b[38;5;130;01m\\\u001b[39;00m\n\u001b[1;32m     15\u001b[0m \u001b[38;5;124m                 [1:v]scale=3840x2160:flags=bicubic, setpts=PTS-STARTPTS[dist];\u001b[39m\u001b[38;5;130;01m\\\u001b[39;00m\n\u001b[1;32m     16\u001b[0m \u001b[38;5;124m                 [dist][ref]libvmaf=feature=name=psnr|name=float_ssim|name=float_ms_ssim:log_path=rd_results/vmaf_logs.json:log_fmt=json\u001b[39m\u001b[38;5;130;01m\\\"\u001b[39;00m\u001b[38;5;124m \u001b[39m\u001b[38;5;130;01m\\\u001b[39;00m\n\u001b[1;32m     17\u001b[0m \u001b[38;5;124m        -f null -\u001b[39m\u001b[38;5;124m\"\u001b[39m\n\u001b[0;32m---> 18\u001b[0m \u001b[43msubprocess\u001b[49m\u001b[38;5;241;43m.\u001b[39;49m\u001b[43mcall\u001b[49m\u001b[43m(\u001b[49m\u001b[43mc_vmaf\u001b[49m\u001b[43m,\u001b[49m\u001b[43m \u001b[49m\u001b[43mshell\u001b[49m\u001b[38;5;241;43m=\u001b[39;49m\u001b[38;5;28;43;01mTrue\u001b[39;49;00m\u001b[43m)\u001b[49m\n\u001b[1;32m     20\u001b[0m \u001b[38;5;28;01mwith\u001b[39;00m \u001b[38;5;28mopen\u001b[39m(\u001b[38;5;124m\"\u001b[39m\u001b[38;5;124mrd_results/vmaf_logs.json\u001b[39m\u001b[38;5;124m\"\u001b[39m, \u001b[38;5;124m'\u001b[39m\u001b[38;5;124mr\u001b[39m\u001b[38;5;124m'\u001b[39m) \u001b[38;5;28;01mas\u001b[39;00m r:\n\u001b[1;32m     21\u001b[0m     i_data \u001b[38;5;241m=\u001b[39m json\u001b[38;5;241m.\u001b[39mload(r)\n",
      "File \u001b[0;32m/usr/lib/python3.8/subprocess.py:342\u001b[0m, in \u001b[0;36mcall\u001b[0;34m(timeout, *popenargs, **kwargs)\u001b[0m\n\u001b[1;32m    340\u001b[0m \u001b[38;5;28;01mwith\u001b[39;00m Popen(\u001b[38;5;241m*\u001b[39mpopenargs, \u001b[38;5;241m*\u001b[39m\u001b[38;5;241m*\u001b[39mkwargs) \u001b[38;5;28;01mas\u001b[39;00m p:\n\u001b[1;32m    341\u001b[0m     \u001b[38;5;28;01mtry\u001b[39;00m:\n\u001b[0;32m--> 342\u001b[0m         \u001b[38;5;28;01mreturn\u001b[39;00m \u001b[43mp\u001b[49m\u001b[38;5;241;43m.\u001b[39;49m\u001b[43mwait\u001b[49m\u001b[43m(\u001b[49m\u001b[43mtimeout\u001b[49m\u001b[38;5;241;43m=\u001b[39;49m\u001b[43mtimeout\u001b[49m\u001b[43m)\u001b[49m\n\u001b[1;32m    343\u001b[0m     \u001b[38;5;28;01mexcept\u001b[39;00m:  \u001b[38;5;66;03m# Including KeyboardInterrupt, wait handled that.\u001b[39;00m\n\u001b[1;32m    344\u001b[0m         p\u001b[38;5;241m.\u001b[39mkill()\n",
      "File \u001b[0;32m/usr/lib/python3.8/subprocess.py:1083\u001b[0m, in \u001b[0;36mPopen.wait\u001b[0;34m(self, timeout)\u001b[0m\n\u001b[1;32m   1081\u001b[0m     endtime \u001b[38;5;241m=\u001b[39m _time() \u001b[38;5;241m+\u001b[39m timeout\n\u001b[1;32m   1082\u001b[0m \u001b[38;5;28;01mtry\u001b[39;00m:\n\u001b[0;32m-> 1083\u001b[0m     \u001b[38;5;28;01mreturn\u001b[39;00m \u001b[38;5;28;43mself\u001b[39;49m\u001b[38;5;241;43m.\u001b[39;49m\u001b[43m_wait\u001b[49m\u001b[43m(\u001b[49m\u001b[43mtimeout\u001b[49m\u001b[38;5;241;43m=\u001b[39;49m\u001b[43mtimeout\u001b[49m\u001b[43m)\u001b[49m\n\u001b[1;32m   1084\u001b[0m \u001b[38;5;28;01mexcept\u001b[39;00m \u001b[38;5;167;01mKeyboardInterrupt\u001b[39;00m:\n\u001b[1;32m   1085\u001b[0m     \u001b[38;5;66;03m# https://bugs.python.org/issue25942\u001b[39;00m\n\u001b[1;32m   1086\u001b[0m     \u001b[38;5;66;03m# The first keyboard interrupt waits briefly for the child to\u001b[39;00m\n\u001b[1;32m   1087\u001b[0m     \u001b[38;5;66;03m# exit under the common assumption that it also received the ^C\u001b[39;00m\n\u001b[1;32m   1088\u001b[0m     \u001b[38;5;66;03m# generated SIGINT and will exit rapidly.\u001b[39;00m\n\u001b[1;32m   1089\u001b[0m     \u001b[38;5;28;01mif\u001b[39;00m timeout \u001b[38;5;129;01mis\u001b[39;00m \u001b[38;5;129;01mnot\u001b[39;00m \u001b[38;5;28;01mNone\u001b[39;00m:\n",
      "File \u001b[0;32m/usr/lib/python3.8/subprocess.py:1806\u001b[0m, in \u001b[0;36mPopen._wait\u001b[0;34m(self, timeout)\u001b[0m\n\u001b[1;32m   1804\u001b[0m \u001b[38;5;28;01mif\u001b[39;00m \u001b[38;5;28mself\u001b[39m\u001b[38;5;241m.\u001b[39mreturncode \u001b[38;5;129;01mis\u001b[39;00m \u001b[38;5;129;01mnot\u001b[39;00m \u001b[38;5;28;01mNone\u001b[39;00m:\n\u001b[1;32m   1805\u001b[0m     \u001b[38;5;28;01mbreak\u001b[39;00m  \u001b[38;5;66;03m# Another thread waited.\u001b[39;00m\n\u001b[0;32m-> 1806\u001b[0m (pid, sts) \u001b[38;5;241m=\u001b[39m \u001b[38;5;28;43mself\u001b[39;49m\u001b[38;5;241;43m.\u001b[39;49m\u001b[43m_try_wait\u001b[49m\u001b[43m(\u001b[49m\u001b[38;5;241;43m0\u001b[39;49m\u001b[43m)\u001b[49m\n\u001b[1;32m   1807\u001b[0m \u001b[38;5;66;03m# Check the pid and loop as waitpid has been known to\u001b[39;00m\n\u001b[1;32m   1808\u001b[0m \u001b[38;5;66;03m# return 0 even without WNOHANG in odd situations.\u001b[39;00m\n\u001b[1;32m   1809\u001b[0m \u001b[38;5;66;03m# http://bugs.python.org/issue14396.\u001b[39;00m\n\u001b[1;32m   1810\u001b[0m \u001b[38;5;28;01mif\u001b[39;00m pid \u001b[38;5;241m==\u001b[39m \u001b[38;5;28mself\u001b[39m\u001b[38;5;241m.\u001b[39mpid:\n",
      "File \u001b[0;32m/usr/lib/python3.8/subprocess.py:1764\u001b[0m, in \u001b[0;36mPopen._try_wait\u001b[0;34m(self, wait_flags)\u001b[0m\n\u001b[1;32m   1762\u001b[0m \u001b[38;5;124;03m\"\"\"All callers to this function MUST hold self._waitpid_lock.\"\"\"\u001b[39;00m\n\u001b[1;32m   1763\u001b[0m \u001b[38;5;28;01mtry\u001b[39;00m:\n\u001b[0;32m-> 1764\u001b[0m     (pid, sts) \u001b[38;5;241m=\u001b[39m \u001b[43mos\u001b[49m\u001b[38;5;241;43m.\u001b[39;49m\u001b[43mwaitpid\u001b[49m\u001b[43m(\u001b[49m\u001b[38;5;28;43mself\u001b[39;49m\u001b[38;5;241;43m.\u001b[39;49m\u001b[43mpid\u001b[49m\u001b[43m,\u001b[49m\u001b[43m \u001b[49m\u001b[43mwait_flags\u001b[49m\u001b[43m)\u001b[49m\n\u001b[1;32m   1765\u001b[0m \u001b[38;5;28;01mexcept\u001b[39;00m \u001b[38;5;167;01mChildProcessError\u001b[39;00m:\n\u001b[1;32m   1766\u001b[0m     \u001b[38;5;66;03m# This happens if SIGCLD is set to be ignored or waiting\u001b[39;00m\n\u001b[1;32m   1767\u001b[0m     \u001b[38;5;66;03m# for child processes has otherwise been disabled for our\u001b[39;00m\n\u001b[1;32m   1768\u001b[0m     \u001b[38;5;66;03m# process.  This child is dead, we can't get the status.\u001b[39;00m\n\u001b[1;32m   1769\u001b[0m     pid \u001b[38;5;241m=\u001b[39m \u001b[38;5;28mself\u001b[39m\u001b[38;5;241m.\u001b[39mpid\n",
      "\u001b[0;31mKeyboardInterrupt\u001b[0m: "
     ]
    }
   ],
   "source": [
    "import os\n",
    "import json\n",
    "import subprocess\n",
    "\n",
    "folder = \"test_vids/encoded\"\n",
    "source = \"smithy\"\n",
    "filepath = \"rd_results/rd_\" + source + \".json\"\n",
    "path_ref = \"test_vids/downsampled/\" + source + \"_3840.yuv\"\n",
    "\n",
    "for file in os.listdir(folder):\n",
    "    path_dist = os.path.join(folder, file)\n",
    "    print(path_dist)\n",
    "    c_vmaf = f\"ffmpeg -f rawvideo -r 50 -video_size 3840x2160 -i {path_ref} \\\n",
    "            -i {path_dist} \\\n",
    "            -lavfi \\\"[0:v]setpts=PTS-STARTPTS[ref];\\\n",
    "                     [1:v]scale=3840x2160:flags=bicubic, setpts=PTS-STARTPTS[dist];\\\n",
    "                     [dist][ref]libvmaf=feature=name=psnr|name=float_ssim|name=float_ms_ssim:log_path=rd_results/vmaf_logs.json:log_fmt=json\\\" \\\n",
    "            -f null -\"\n",
    "    subprocess.call(c_vmaf, shell=True)\n",
    "    \n",
    "    with open(\"rd_results/vmaf_logs.json\", 'r') as r:\n",
    "        i_data = json.load(r)\n",
    "\n",
    "    vmaf = i_data[\"pooled_metrics\"][\"vmaf\"][\"mean\"]\n",
    "    ssim = i_data[\"pooled_metrics\"][\"float_ssim\"][\"mean\"]\n",
    "    ms_ssim = i_data[\"pooled_metrics\"][\"float_ms_ssim\"][\"mean\"]\n",
    "    psnr = (6*i_data[\"pooled_metrics\"][\"psnr_y\"][\"mean\"] + i_data[\"pooled_metrics\"][\"psnr_cb\"][\"mean\"] + i_data[\"pooled_metrics\"][\"psnr_cr\"][\"mean\"])/8\n",
    "    print(vmaf)\n",
    "    command = \"ffprobe -v error -select_streams v:0 -show_entries format:stream -print_format json \" + path_dist\n",
    "    cout = subprocess.run(command.split(), stdout=subprocess.PIPE, stderr=subprocess.STDOUT).stdout\n",
    "    \n",
    "    dict = json.loads(cout)  # Convert data from JSON string to dictionary\n",
    "    file_name = str(dict['format']['filename']).split(\"/\")[-1]\n",
    "    codec = str(dict['streams'][0]['codec_name']) \n",
    "    resolution = int(dict['streams'][0]['bit_rate']) \n",
    "    width = int(dict['streams'][0]['width'])\n",
    "    height = int(dict['streams'][0]['height']) \n",
    "    fps = int(str(dict['streams'][0]['r_frame_rate']).split(\"/\")[0])\n",
    "    cbr = int(file_name[:-4].split(\"_cf\")[1])\n",
    "    bitrate = int(dict['streams'][0]['bit_rate']) \n",
    "\n",
    "    with open(filepath, 'r') as f:\n",
    "        o_data = json.load(f)\n",
    "    o_data.append({\n",
    "        \"video_content\": source,\n",
    "        \"file_name\": file_name,\n",
    "        \"codec\": codec,\n",
    "        \"width\": width,\n",
    "        \"height\": height,\n",
    "        \"framerate\": fps,\n",
    "        \"cbr\": cbr,\n",
    "        \"bitrate\": bitrate,\n",
    "        \"vmaf\": vmaf,\n",
    "        \"psnr\": psnr,\n",
    "        \"ssim\": ssim,\n",
    "        \"ms_ssim\": ms_ssim\n",
    "    })\n",
    "    with open(filepath, 'w') as w:\n",
    "        json.dump(o_data, w, indent=4, separators=(',',': '))\n",
    "        print(\"written\")"
   ]
  },
  {
   "cell_type": "code",
   "execution_count": 5,
   "id": "14e4d380",
   "metadata": {},
   "outputs": [
    {
     "name": "stdout",
     "output_type": "stream",
     "text": [
      "test_vids/encoded/smithyAVC_640_cf34.mp4\n"
     ]
    },
    {
     "name": "stderr",
     "output_type": "stream",
     "text": [
      "ffmpeg version N-106635-g83e1a1de88 Copyright (c) 2000-2022 the FFmpeg developers\n",
      "  built with gcc 9 (Ubuntu 9.4.0-1ubuntu1~20.04.1)\n",
      "  configuration: --prefix=/home/ubuntu/ffmpeg_build --pkg-config-flags=--static --extra-cflags=-I/home/ubuntu/ffmpeg_build/include --extra-ldflags=-L/home/ubuntu/ffmpeg_build/lib --extra-libs='-lpthread -lm' --ld=g++ --bindir=/home/ubuntu/bin --enable-gpl --enable-gnutls --enable-libaom --enable-libass --enable-libfdk-aac --enable-libfreetype --enable-libmp3lame --enable-libopus --enable-libsvtav1 --enable-libdav1d --enable-libvorbis --enable-libvpx --enable-libx264 --enable-libx265 --enable-libvmaf --enable-version3 --enable-nonfree\n",
      "  libavutil      57. 24.101 / 57. 24.101\n",
      "  libavcodec     59. 26.100 / 59. 26.100\n",
      "  libavformat    59. 22.100 / 59. 22.100\n",
      "  libavdevice    59.  6.100 / 59.  6.100\n",
      "  libavfilter     8. 33.100 /  8. 33.100\n",
      "  libswscale      6.  6.100 /  6.  6.100\n",
      "  libswresample   4.  6.100 /  4.  6.100\n",
      "  libpostproc    56.  5.100 / 56.  5.100\n",
      "[rawvideo @ 0x55ad0d6a0600] Estimating duration from bitrate, this may be inaccurate\n",
      "Input #0, rawvideo, from 'test_vids/downsampled/smithy_3840.yuv':\n",
      "  Duration: 00:00:30.00, start: 0.000000, bitrate: 4976640 kb/s\n",
      "  Stream #0:0: Video: rawvideo (I420 / 0x30323449), yuv420p, 3840x2160, 4976640 kb/s, 50 tbr, 50 tbn\n",
      "Input #1, mov,mp4,m4a,3gp,3g2,mj2, from 'test_vids/encoded/smithyAVC_640_cf34.mp4':\n",
      "  Metadata:\n",
      "    major_brand     : isom\n",
      "    minor_version   : 512\n",
      "    compatible_brands: isomiso2avc1mp41\n",
      "    encoder         : Lavf58.29.100\n",
      "  Duration: 00:00:30.00, start: 0.000000, bitrate: 81 kb/s\n",
      "  Stream #1:0[0x1](und): Video: h264 (High) (avc1 / 0x31637661), yuv420p(progressive), 640x360, 76 kb/s, 50 fps, 50 tbr, 12800 tbn (default)\n",
      "    Metadata:\n",
      "      handler_name    : VideoHandler\n",
      "      vendor_id       : [0][0][0][0]\n",
      "Stream mapping:\n",
      "  Stream #0:0 (rawvideo) -> setpts:default\n",
      "  Stream #1:0 (h264) -> scale:default\n",
      "  libvmaf:default -> Stream #0:0 (wrapped_avframe)\n",
      "Press [q] to stop, [?] for help\n",
      "Output #0, null, to 'pipe:':\n",
      "  Metadata:\n",
      "    encoder         : Lavf59.22.100\n",
      "  Stream #0:0: Video: wrapped_avframe, yuv420p(tv, progressive), 3840x2160, q=2-31, 200 kb/s, 50 fps, 50 tbn\n",
      "    Metadata:\n",
      "      encoder         : Lavc59.26.100 wrapped_avframe\n",
      "frame= 1499 fps=0.5 q=-0.0 size=N/A time=00:00:29.98 bitrate=N/A speed=0.00953x    \r"
     ]
    },
    {
     "name": "stdout",
     "output_type": "stream",
     "text": [
      "0.044292\n",
      "written\n"
     ]
    },
    {
     "name": "stderr",
     "output_type": "stream",
     "text": [
      "frame= 1500 fps=0.5 q=-0.0 size=N/A time=00:00:30.00 bitrate=N/A speed=0.00953x    \r",
      "frame= 1500 fps=0.5 q=-0.0 Lsize=N/A time=00:00:30.00 bitrate=N/A speed=0.00953x    \n",
      "video:691kB audio:0kB subtitle:0kB other streams:0kB global headers:0kB muxing overhead: unknown\n",
      "[Parsed_libvmaf_3 @ 0x55ad0dfdda00] VMAF score: 0.044292\n"
     ]
    }
   ],
   "source": [
    "import os\n",
    "import json\n",
    "import subprocess\n",
    "\n",
    "folder = \"test_vids/encoded\"\n",
    "source = \"smithy\"\n",
    "filepath = \"rd_results/rd_\" + source + \".json\"\n",
    "path_ref = \"test_vids/downsampled/\" + source + \"_3840.yuv\"\n",
    "\n",
    "path_dist = \"test_vids/encoded/smithyAVC_640_cf34.mp4\"\n",
    "print(path_dist)\n",
    "c_vmaf = f\"ffmpeg -f rawvideo -r 50 -video_size 3840x2160 -i {path_ref} \\\n",
    "        -i {path_dist} \\\n",
    "        -lavfi \\\"[0:v]setpts=PTS-STARTPTS[ref];\\\n",
    "                [1:v]scale=3840x2160:flags=bicubic, setpts=PTS-STARTPTS[dist];\\\n",
    "                [dist][ref]libvmaf=feature=name=psnr|name=float_ssim|name=float_ms_ssim:log_path=rd_results/vmaf_logs.json:log_fmt=json\\\" \\\n",
    "        -f null -\"\n",
    "subprocess.call(c_vmaf, shell=True)\n",
    "\n",
    "with open(\"rd_results/vmaf_logs.json\", 'r') as r:\n",
    "    i_data = json.load(r)\n",
    "\n",
    "vmaf = i_data[\"pooled_metrics\"][\"vmaf\"][\"mean\"]\n",
    "ssim = i_data[\"pooled_metrics\"][\"float_ssim\"][\"mean\"]\n",
    "ms_ssim = i_data[\"pooled_metrics\"][\"float_ms_ssim\"][\"mean\"]\n",
    "psnr = (6*i_data[\"pooled_metrics\"][\"psnr_y\"][\"mean\"] + i_data[\"pooled_metrics\"][\"psnr_cb\"][\"mean\"] + i_data[\"pooled_metrics\"][\"psnr_cr\"][\"mean\"])/8\n",
    "print(vmaf)\n",
    "command = \"ffprobe -v error -select_streams v:0 -show_entries format:stream -print_format json \" + path_dist\n",
    "cout = subprocess.run(command.split(), stdout=subprocess.PIPE, stderr=subprocess.STDOUT).stdout\n",
    "\n",
    "dict = json.loads(cout)  # Convert data from JSON string to dictionary\n",
    "file_name = str(dict['format']['filename']).split(\"/\")[-1]\n",
    "codec = str(dict['streams'][0]['codec_name']) \n",
    "resolution = int(dict['streams'][0]['bit_rate']) \n",
    "width = int(dict['streams'][0]['width'])\n",
    "height = int(dict['streams'][0]['height']) \n",
    "fps = int(str(dict['streams'][0]['r_frame_rate']).split(\"/\")[0])\n",
    "cbr = int(file_name[:-4].split(\"_cf\")[1])\n",
    "bitrate = int(dict['streams'][0]['bit_rate'])\n",
    "\n",
    "with open(filepath, 'r') as f:\n",
    "    o_data = json.load(f)\n",
    "o_data.append({\n",
    "    \"video_content\": source,\n",
    "    \"file_name\": file_name,\n",
    "    \"codec\": codec,\n",
    "    \"width\": width,\n",
    "    \"height\": height,\n",
    "    \"framerate\": fps,\n",
    "    \"cbr\": cbr,\n",
    "    \"bitrate\": bitrate,\n",
    "    \"vmaf\": vmaf,\n",
    "    \"psnr\": psnr,\n",
    "    \"ssim\": ssim,\n",
    "    \"ms_ssim\": ms_ssim\n",
    "})\n",
    "with open(filepath, 'w') as w:\n",
    "    json.dump(o_data, w, indent=4, separators=(',',': '))\n",
    "    print(\"written\")"
   ]
  },
  {
   "cell_type": "code",
   "execution_count": null,
   "id": "18b69d93",
   "metadata": {},
   "outputs": [],
   "source": []
  }
 ],
 "metadata": {
  "kernelspec": {
   "display_name": "Python 3 (ipykernel)",
   "language": "python",
   "name": "python3"
  },
  "language_info": {
   "codemirror_mode": {
    "name": "ipython",
    "version": 3
   },
   "file_extension": ".py",
   "mimetype": "text/x-python",
   "name": "python",
   "nbconvert_exporter": "python",
   "pygments_lexer": "ipython3",
   "version": "3.8.10"
  }
 },
 "nbformat": 4,
 "nbformat_minor": 5
}
